<svg width="30" height="30" viewBox="0 0 30 30" fill="none" xmlns="http://www.w3.org/2000/svg">
<path d="M30 15C30 23.2843 23.2843 30 15 30C6.71573 30 0 23.2843 0 15C0 6.71573 6.71573 0 15 0C23.2843 0 30 6.71573 30 15Z" fill="#6A6F6C"/>
<path d="M20.7798 19.3979L21.4542 15.0869H17.2355V12.2907C17.2355 11.1114 17.825 9.96059 19.715 9.96059H21.6329V6.2908C21.6329 6.2908 19.8912 6 18.2268 6C14.7535 6 12.4819 8.06294 12.4819 11.8011V15.0869H8.61938V19.3979H12.4819V29.8183C14.0563 30.0606 15.6598 30.0606 17.2355 29.8183V19.3979H20.7798Z" fill="white"/>
</svg>
