<svg width="30" height="30" viewBox="0 0 30 30" fill="none" xmlns="http://www.w3.org/2000/svg">
<path d="M30 15C30 23.2843 23.2843 30 15 30C6.71573 30 0 23.2843 0 15C0 6.71573 6.71573 0 15 0C23.2843 0 30 6.71573 30 15Z" fill="#6A6F6C"/>
<path fill-rule="evenodd" clip-rule="evenodd" d="M14.9051 19C17.3931 19 19.4098 16.9854 19.4098 14.5C19.4098 12.0146 17.3931 10 14.9051 10C12.4171 10 10.4004 12.0146 10.4004 14.5C10.4004 16.9854 12.4171 19 14.9051 19ZM14.9051 17.2C16.3979 17.2 17.6079 15.9912 17.6079 14.5C17.6079 13.0088 16.3979 11.8 14.9051 11.8C13.4123 11.8 12.2023 13.0088 12.2023 14.5C12.2023 15.9912 13.4123 17.2 14.9051 17.2Z" fill="white"/>
<path fill-rule="evenodd" clip-rule="evenodd" d="M5.39526 14.12C5.39526 10.928 5.39526 9.332 6.01707 8.11308C6.56425 7.04031 7.43624 6.16777 8.51012 5.62115C9.73178 5 11.3294 5 14.5248 5H15.2856C18.4809 5 20.0786 5 21.2988 5.62115C22.3726 6.16777 23.2461 7.03885 23.7933 8.11162C24.4151 9.332 24.4151 10.928 24.4151 14.12V14.88C24.4151 18.072 24.4151 19.668 23.7933 20.8869C23.2461 21.9597 22.3741 22.8322 21.3002 23.3788C20.0786 24 18.4809 24 15.2856 24H14.5248C11.3294 24 9.73178 24 8.51159 23.3788C7.43624 22.8308 6.56279 21.9612 6.0156 20.8869C5.39526 19.668 5.39526 18.072 5.39526 14.88V14.12ZM14.5248 6.9H15.2856C16.9154 6.9 18.0215 6.90146 18.8788 6.97161C19.7128 7.03885 20.1385 7.16162 20.4355 7.31362C21.1524 7.679 21.7333 8.25923 22.099 8.97539C22.2497 9.27208 22.3741 9.69739 22.4414 10.5305C22.5116 11.3855 22.5131 12.4918 22.5131 14.12V14.88C22.5131 16.5082 22.5116 17.6131 22.4414 18.4695C22.3741 19.3026 22.2512 19.7279 22.099 20.0246C21.7333 20.7408 21.1524 21.321 20.4355 21.6864C20.1385 21.8369 19.7128 21.9612 18.8788 22.0284C18.0215 22.1 16.9154 22.1 15.2856 22.1H14.5248C12.8949 22.1 11.7888 22.0985 10.9315 22.0284C10.0975 21.9612 9.67179 21.8384 9.37479 21.6864C8.65789 21.321 8.07706 20.7408 7.71129 20.0246C7.5606 19.7279 7.43624 19.3026 7.36893 18.4695C7.29724 17.6131 7.29724 16.5082 7.29724 14.88V14.12C7.29724 12.4918 7.29871 11.3869 7.36893 10.5305C7.43624 9.69739 7.55913 9.27208 7.71129 8.97539C8.07706 8.25923 8.65789 7.679 9.37479 7.31362C9.67179 7.16308 10.0975 7.03885 10.9315 6.97161C11.7874 6.90146 12.8949 6.9 14.5248 6.9Z" fill="white"/>
</svg>
