<svg width="24" height="24" viewBox="0 0 24 24" fill="none" xmlns="http://www.w3.org/2000/svg">
<path d="M11.9926 3.65403L11.2931 4.31875C11.468 4.546 11.7226 4.67667 11.9926 4.67667C12.2616 4.67667 12.5173 4.546 12.6922 4.31875L11.9926 3.65403ZM12.6922 2.98818C10.2059 -0.239952 5.93799 -1.20464 2.7102 1.85987L3.90579 3.41314C6.22845 1.20879 9.34885 1.79169 11.2931 4.31761L12.6922 2.98818ZM2.7102 1.85987C-0.435772 4.84484 -0.889871 9.86713 1.59438 13.4202L3.0477 12.1658C1.17301 9.48534 1.50029 5.69703 3.90681 3.41314L2.7102 1.85987ZM22.3909 13.4202C24.867 9.87963 24.4804 4.8187 21.2659 1.85078L20.0897 3.42337C22.5208 5.66863 22.8205 9.47398 20.9376 12.1658L22.3909 13.4202ZM21.2659 1.85078C17.9992 -1.16487 13.7865 -0.249041 11.2931 2.98932L12.6922 4.31875C14.6293 1.80192 17.7098 1.22583 20.0897 3.42337L21.2659 1.85078ZM1.59438 13.4202C2.55065 14.7883 4.42739 16.854 6.24174 18.7573C8.0745 20.6776 9.90318 22.4956 10.8052 23.3819L12.0254 21.8513C11.1305 20.9696 9.31817 19.1697 7.50484 17.2699C5.67616 15.3507 3.90477 13.3896 3.0477 12.1658L1.59438 13.4202ZM13.1801 23.3819C14.0821 22.4956 15.9108 20.6776 17.7436 18.7573C19.5579 16.854 21.4346 14.7883 22.3909 13.4202L20.9376 12.1658C20.0816 13.3896 18.3091 15.3507 16.4794 17.2699C14.6671 19.1697 12.8558 20.9696 11.9599 21.8513L13.1801 23.3819ZM10.8052 23.3819C10.8942 23.4705 11.0016 23.5762 11.1018 23.6614C11.2143 23.7546 11.3678 23.8659 11.5713 23.9318L12.097 21.9729C12.1829 22.0013 12.2279 22.0422 12.2095 22.0274L12.1481 21.9706L12.0254 21.8513L10.8052 23.3819ZM11.9599 21.8513L11.8372 21.9706L11.7758 22.0274C11.7574 22.0422 11.8024 22.0013 11.8883 21.9729L12.414 23.9318C12.6175 23.8648 12.771 23.7546 12.8824 23.6614C12.9837 23.5762 13.0901 23.4705 13.1801 23.3819L11.9599 21.8513ZM11.5713 23.9318C11.8454 24.0227 12.1399 24.0227 12.414 23.9318L11.8873 21.9729C11.9575 21.9502 12.0274 21.9502 12.097 21.9729L11.5713 23.9318Z" fill="#FD5890"/>
</svg>
