<svg width="98" height="31" viewBox="0 0 98 31" fill="none" xmlns="http://www.w3.org/2000/svg">
<path fill-rule="evenodd" clip-rule="evenodd" d="M4.61653 3L5.26498 3.17959C8.66785 4.12307 11.8138 5.67867 14.0141 7.84554C16.0849 6.34728 18.5261 5.09437 21.2173 4.12222L21.8407 3.8971L22.2573 4.34734C25.9071 8.30506 26.957 13.143 25.1 17.9624C23.1506 23.0196 18.1256 26.5338 11.9754 28.7555L11.363 28.9772L11.345 29L10.5992 28.5835C5.79398 25.8964 2.10202 23.2042 0.575243 18.2474C-0.949525 13.3015 0.652536 8.23929 4.25014 3.48396L4.61653 3ZM12.7282 8.84888C10.6453 10.6009 9.03826 12.6354 8.06658 14.9077C6.47255 18.631 6.87708 22.3839 8.84051 25.7294C5.61129 23.6368 3.35275 21.3822 2.27166 17.8789C0.956686 13.6093 2.20139 9.14398 5.36536 4.76723C8.33058 5.67108 10.9224 7.04624 12.7282 8.84888Z" fill="#84BA11"/>
<path d="M19.072 10.04C20.32 10.04 21.432 10.312 22.408 10.856C23.4 11.4 24.176 12.168 24.736 13.16C25.296 14.152 25.576 15.296 25.576 16.592C25.576 17.888 25.296 19.04 24.736 20.048C24.176 21.04 23.4 21.808 22.408 22.352C21.432 22.896 20.32 23.168 19.072 23.168C18.192 23.168 17.384 23.016 16.648 22.712C15.928 22.408 15.32 21.952 14.824 21.344V23H11.968V5.192H14.968V11.744C15.48 11.184 16.08 10.76 16.768 10.472C17.472 10.184 18.24 10.04 19.072 10.04ZM18.736 20.6C19.84 20.6 20.744 20.232 21.448 19.496C22.168 18.76 22.528 17.792 22.528 16.592C22.528 15.392 22.168 14.424 21.448 13.688C20.744 12.952 19.84 12.584 18.736 12.584C18.016 12.584 17.368 12.752 16.792 13.088C16.216 13.408 15.76 13.872 15.424 14.48C15.088 15.088 14.92 15.792 14.92 16.592C14.92 17.392 15.088 18.096 15.424 18.704C15.76 19.312 16.216 19.784 16.792 20.12C17.368 20.44 18.016 20.6 18.736 20.6ZM40.8291 10.184V23H37.9731V21.368C37.4931 21.944 36.8931 22.392 36.1731 22.712C35.4531 23.016 34.6771 23.168 33.8451 23.168C32.1331 23.168 30.7811 22.696 29.7891 21.752C28.8131 20.792 28.3251 19.376 28.3251 17.504V10.184H31.3251V17.096C31.3251 18.248 31.5811 19.112 32.0931 19.688C32.6211 20.248 33.3651 20.528 34.3251 20.528C35.3971 20.528 36.2451 20.2 36.8691 19.544C37.5091 18.872 37.8291 17.912 37.8291 16.664V10.184H40.8291ZM49.9891 17.504L47.7571 19.616V23H44.7571V5.192H47.7571V15.944L53.9731 10.184H57.5731L52.2211 15.56L58.0771 23H54.4291L49.9891 17.504ZM65.5718 20.624C66.9638 20.624 68.1238 20.16 69.0518 19.232L70.6358 21.08C70.0758 21.768 69.3558 22.288 68.4758 22.64C67.5958 22.992 66.6038 23.168 65.4998 23.168C64.0918 23.168 62.8518 22.888 61.7798 22.328C60.7078 21.768 59.8758 20.992 59.2838 20C58.7078 18.992 58.4198 17.856 58.4198 16.592C58.4198 15.344 58.6998 14.224 59.2598 13.232C59.8358 12.224 60.6198 11.44 61.6118 10.88C62.6198 10.32 63.7558 10.04 65.0198 10.04C66.2198 10.04 67.3078 10.304 68.2838 10.832C69.2758 11.344 70.0598 12.088 70.6358 13.064C71.2118 14.024 71.4998 15.152 71.4998 16.448L61.6838 18.368C61.9878 19.104 62.4758 19.664 63.1478 20.048C63.8198 20.432 64.6278 20.624 65.5718 20.624ZM65.0198 12.44C63.9158 12.44 63.0198 12.8 62.3318 13.52C61.6598 14.24 61.3238 15.208 61.3238 16.424V16.448L68.5718 15.056C68.3638 14.272 67.9398 13.64 67.2998 13.16C66.6758 12.68 65.9158 12.44 65.0198 12.44ZM81.5821 22.304C81.2301 22.592 80.7981 22.808 80.2861 22.952C79.7901 23.096 79.2621 23.168 78.7021 23.168C77.2941 23.168 76.2061 22.8 75.4381 22.064C74.6701 21.328 74.2861 20.256 74.2861 18.848V7.352H77.2861V10.28H80.7181V12.68H77.2861V18.776C77.2861 19.4 77.4381 19.88 77.7421 20.216C78.0621 20.536 78.5021 20.696 79.0621 20.696C79.7341 20.696 80.2941 20.52 80.7421 20.168L81.5821 22.304ZM89.7359 20.624C91.1279 20.624 92.2879 20.16 93.2159 19.232L94.7999 21.08C94.2399 21.768 93.5199 22.288 92.6399 22.64C91.7599 22.992 90.7679 23.168 89.6639 23.168C88.2559 23.168 87.0159 22.888 85.9439 22.328C84.8719 21.768 84.0399 20.992 83.4479 20C82.8719 18.992 82.5839 17.856 82.5839 16.592C82.5839 15.344 82.8639 14.224 83.4239 13.232C83.9999 12.224 84.7839 11.44 85.7759 10.88C86.7839 10.32 87.9199 10.04 89.1839 10.04C90.3839 10.04 91.4719 10.304 92.4479 10.832C93.4399 11.344 94.2239 12.088 94.7999 13.064C95.3759 14.024 95.6639 15.152 95.6639 16.448L85.8479 18.368C86.1519 19.104 86.6399 19.664 87.3119 20.048C87.9839 20.432 88.7919 20.624 89.7359 20.624ZM89.1839 12.44C88.0799 12.44 87.1839 12.8 86.4959 13.52C85.8239 14.24 85.4879 15.208 85.4879 16.424V16.448L92.7359 15.056C92.5279 14.272 92.1039 13.64 91.4639 13.16C90.8399 12.68 90.0799 12.44 89.1839 12.44Z" fill="white"/>
</svg>
