<svg width="280" height="65" viewBox="0 0 280 65" fill="none" xmlns="http://www.w3.org/2000/svg">
<g clip-path="url(#clip0_297_15)">
<path fill-rule="evenodd" clip-rule="evenodd" d="M11.5413 0L13.1625 0.448971C21.6696 2.80766 29.5344 6.69666 35.0352 12.1139C40.2123 8.36819 46.3154 5.23592 53.0433 2.80556L54.6017 2.24276L55.6431 3.36836C64.7677 13.2626 67.3926 25.3575 62.75 37.406C57.8766 50.049 45.3141 58.8345 29.9384 64.3887L28.4076 64.9431L28.3625 65L26.4979 63.9587C14.485 57.241 5.25505 50.5106 1.43811 38.1185C-2.37381 25.7538 1.63134 13.0982 10.6254 1.20991L11.5413 0ZM31.8205 14.6222C26.6133 19.0023 22.5956 24.0886 20.1665 29.7693C16.1814 39.0776 17.1927 48.4596 22.1013 56.8236C14.0282 51.5919 8.38187 45.9555 5.67915 37.1974C2.39171 26.5232 5.50348 15.36 13.4134 4.41807C20.8264 6.6777 27.306 10.1156 31.8205 14.6222Z" fill="#84BA11"/>
<path d="M35.3283 12.5189L34.9857 12.7668L34.6844 12.4701C29.2632 7.13131 21.4845 3.27522 13.029 0.93084C13.029 0.930824 13.0289 0.930817 13.0289 0.930801L11.7351 0.572479L11.0241 1.51158C11.0241 1.51162 11.024 1.51167 11.024 1.51171C2.08509 13.3272 -1.83129 25.8164 1.91592 37.9712L1.91595 37.9713C5.67189 50.1653 14.7456 56.8138 26.7417 63.5222C26.7418 63.5222 26.7419 63.5223 26.7419 63.5223L28.3628 64.4275L29.7682 63.9186L29.7685 63.9185C45.0903 58.3837 57.487 49.6694 62.2835 37.2263C66.8521 25.3695 64.2815 13.4732 55.2759 3.70765C55.2758 3.70754 55.2757 3.70744 55.2756 3.70732L54.4598 2.82561L53.2132 3.27581C53.2132 3.27581 53.2132 3.27583 53.2132 3.27583C46.5225 5.69273 40.4622 8.80452 35.3283 12.5189ZM32.1738 14.2683L32.5598 14.6537L32.1424 15.0048C26.9834 19.3444 23.0191 24.3699 20.6262 29.9659L20.6261 29.9661C16.7086 39.1165 17.6975 48.332 22.5325 56.5705L21.8294 57.2432C13.7039 51.9775 7.95198 46.2581 5.20138 37.3448L5.2013 37.3445C1.85186 26.469 5.04321 15.1432 13.0082 4.12514L13.2175 3.83564L13.5592 3.9398C21.0231 6.21492 27.5839 9.68657 32.1738 14.2683Z" fill="#84BA11" stroke="black"/>
<mask id="path-3-outside-1_297_15" maskUnits="userSpaceOnUse" x="26" y="2" width="39" height="51" fill="black">
<rect fill="white" x="26" y="2" width="39" height="51"/>
<path d="M46.192 16.44C49.52 16.44 52.4853 17.1653 55.088 18.616C57.7333 20.0667 59.8027 22.1147 61.296 24.76C62.7893 27.4053 63.536 30.456 63.536 33.912C63.536 37.368 62.7893 40.44 61.296 43.128C59.8027 45.7733 57.7333 47.8213 55.088 49.272C52.4853 50.7227 49.52 51.448 46.192 51.448C43.8453 51.448 41.6907 51.0427 39.728 50.232C37.808 49.4213 36.1867 48.2053 34.864 46.584V51H27.248V3.512H35.248V20.984C36.6133 19.4907 38.2133 18.36 40.048 17.592C41.9253 16.824 43.9733 16.44 46.192 16.44ZM45.296 44.6C48.24 44.6 50.6507 43.6187 52.528 41.656C54.448 39.6933 55.408 37.112 55.408 33.912C55.408 30.712 54.448 28.1307 52.528 26.168C50.6507 24.2053 48.24 23.224 45.296 23.224C43.376 23.224 41.648 23.672 40.112 24.568C38.576 25.4213 37.36 26.6587 36.464 28.28C35.568 29.9013 35.12 31.7787 35.12 33.912C35.12 36.0453 35.568 37.9227 36.464 39.544C37.36 41.1653 38.576 42.424 40.112 43.32C41.648 44.1733 43.376 44.6 45.296 44.6Z"/>
</mask>
<path d="M46.192 16.44C49.52 16.44 52.4853 17.1653 55.088 18.616C57.7333 20.0667 59.8027 22.1147 61.296 24.76C62.7893 27.4053 63.536 30.456 63.536 33.912C63.536 37.368 62.7893 40.44 61.296 43.128C59.8027 45.7733 57.7333 47.8213 55.088 49.272C52.4853 50.7227 49.52 51.448 46.192 51.448C43.8453 51.448 41.6907 51.0427 39.728 50.232C37.808 49.4213 36.1867 48.2053 34.864 46.584V51H27.248V3.512H35.248V20.984C36.6133 19.4907 38.2133 18.36 40.048 17.592C41.9253 16.824 43.9733 16.44 46.192 16.44ZM45.296 44.6C48.24 44.6 50.6507 43.6187 52.528 41.656C54.448 39.6933 55.408 37.112 55.408 33.912C55.408 30.712 54.448 28.1307 52.528 26.168C50.6507 24.2053 48.24 23.224 45.296 23.224C43.376 23.224 41.648 23.672 40.112 24.568C38.576 25.4213 37.36 26.6587 36.464 28.28C35.568 29.9013 35.12 31.7787 35.12 33.912C35.12 36.0453 35.568 37.9227 36.464 39.544C37.36 41.1653 38.576 42.424 40.112 43.32C41.648 44.1733 43.376 44.6 45.296 44.6Z" fill="white"/>
<path d="M55.088 18.616L54.6011 19.4895L54.6072 19.4928L55.088 18.616ZM61.296 24.76L60.4252 25.2516L60.4252 25.2516L61.296 24.76ZM61.296 43.128L62.1668 43.6196L62.1702 43.6136L61.296 43.128ZM55.088 49.272L54.6072 48.3952L54.6011 48.3985L55.088 49.272ZM39.728 50.232L39.339 51.1533L39.3462 51.1563L39.728 50.232ZM34.864 46.584L35.6389 45.9519L33.864 43.7762V46.584H34.864ZM34.864 51V52H35.864V51H34.864ZM27.248 51H26.248V52H27.248V51ZM27.248 3.512V2.512H26.248V3.512H27.248ZM35.248 3.512H36.248V2.512H35.248V3.512ZM35.248 20.984H34.248V23.5597L35.986 21.6588L35.248 20.984ZM40.048 17.592L39.6694 16.6664L39.6619 16.6696L40.048 17.592ZM52.528 41.656L51.8131 40.9567L51.8054 40.9648L52.528 41.656ZM52.528 26.168L51.8053 26.8593L51.8132 26.8673L52.528 26.168ZM40.112 24.568L40.5976 25.4422L40.6068 25.4371L40.6159 25.4318L40.112 24.568ZM36.464 28.28L35.5888 27.7963L35.5888 27.7963L36.464 28.28ZM40.112 43.32L39.6081 44.1838L39.6172 44.1891L39.6264 44.1942L40.112 43.32ZM46.192 17.44C49.3699 17.44 52.1641 18.1311 54.6011 19.4895L55.5749 17.7425C52.8065 16.1995 49.6701 15.44 46.192 15.44V17.44ZM54.6072 19.4928C57.088 20.8533 59.0228 22.7673 60.4252 25.2516L62.1668 24.2684C60.5826 21.462 58.3787 19.2801 55.5688 17.7392L54.6072 19.4928ZM60.4252 25.2516C61.8227 27.7273 62.536 30.6042 62.536 33.912H64.536C64.536 30.3078 63.7559 27.0834 62.1668 24.2684L60.4252 25.2516ZM62.536 33.912C62.536 37.2195 61.8228 40.1206 60.4218 42.6424L62.1702 43.6136C63.7558 40.7594 64.536 37.5165 64.536 33.912H62.536ZM60.4252 42.6364C59.0228 45.1207 57.088 47.0347 54.6072 48.3952L55.5688 50.1488C58.3787 48.6079 60.5826 46.426 62.1668 43.6196L60.4252 42.6364ZM54.6011 48.3985C52.1641 49.7569 49.3699 50.448 46.192 50.448V52.448C49.6701 52.448 52.8065 51.6885 55.5749 50.1455L54.6011 48.3985ZM46.192 50.448C43.9625 50.448 41.9392 50.0634 40.1098 49.3077L39.3462 51.1563C41.4421 52.0219 43.7281 52.448 46.192 52.448V50.448ZM40.117 49.3108C38.3479 48.5638 36.8588 47.4473 35.6389 45.9519L34.0891 47.2161C35.5145 48.9633 37.2681 50.2789 39.339 51.1532L40.117 49.3108ZM33.864 46.584V51H35.864V46.584H33.864ZM34.864 50H27.248V52H34.864V50ZM28.248 51V3.512H26.248V51H28.248ZM27.248 4.512H35.248V2.512H27.248V4.512ZM34.248 3.512V20.984H36.248V3.512H34.248ZM35.986 21.6588C37.2552 20.2706 38.7357 19.2254 40.4341 18.5144L39.6619 16.6696C37.6909 17.4946 35.9715 18.7107 34.51 20.3092L35.986 21.6588ZM40.4266 18.5175C42.173 17.8031 44.0909 17.44 46.192 17.44V15.44C43.8557 15.44 41.6777 15.8449 39.6694 16.6665L40.4266 18.5175ZM45.296 45.6C48.4875 45.6 51.1678 44.5248 53.2506 42.3472L51.8054 40.9648C50.1336 42.7125 47.9925 43.6 45.296 43.6V45.6ZM53.2428 42.3553C55.3758 40.1749 56.408 37.3268 56.408 33.912H54.408C54.408 36.8972 53.5202 39.2117 51.8132 40.9567L53.2428 42.3553ZM56.408 33.912C56.408 30.4972 55.3758 27.6491 53.2428 25.4687L51.8132 26.8673C53.5202 28.6123 54.408 30.9268 54.408 33.912H56.408ZM53.2506 25.4768C51.1678 23.2992 48.4875 22.224 45.296 22.224V24.224C47.9925 24.224 50.1336 25.1115 51.8054 26.8592L53.2506 25.4768ZM45.296 22.224C43.2135 22.224 41.3092 22.7119 39.6081 23.7042L40.6159 25.4318C41.9868 24.6321 43.5385 24.224 45.296 24.224V22.224ZM39.6264 23.6938C37.9174 24.6433 36.5703 26.0202 35.5888 27.7963L37.3392 28.7637C38.1497 27.2971 39.2346 26.1994 40.5976 25.4422L39.6264 23.6938ZM35.5888 27.7963C34.5992 29.5869 34.12 31.6354 34.12 33.912H36.12C36.12 31.9219 36.5368 30.2158 37.3392 28.7637L35.5888 27.7963ZM34.12 33.912C34.12 36.1886 34.5992 38.2371 35.5888 40.0277L37.3392 39.0603C36.5368 37.6082 36.12 35.9021 36.12 33.912H34.12ZM35.5888 40.0277C36.5682 41.8 37.9097 43.193 39.6081 44.1838L40.6159 42.4562C39.2423 41.655 38.1518 40.5307 37.3392 39.0603L35.5888 40.0277ZM39.6264 44.1942C41.3244 45.1375 43.2222 45.6 45.296 45.6V43.6C43.5298 43.6 41.9716 43.2091 40.5976 42.4458L39.6264 44.1942Z" fill="black" mask="url(#path-3-outside-1_297_15)"/>
</g>
<defs>
<clipPath id="clip0_297_15">
<rect width="280" height="65" fill="white"/>
</clipPath>
</defs>
</svg>
