<svg width="280" height="65" viewBox="0 0 280 65" fill="none" xmlns="http://www.w3.org/2000/svg">
<path fill-rule="evenodd" clip-rule="evenodd" d="M11.5413 0L13.1625 0.448975C21.6696 2.80766 29.5344 6.69666 35.0352 12.1139C40.2123 8.36819 46.3154 5.23592 53.0433 2.80556L54.6017 2.24276L55.6431 3.36836C64.7677 13.2626 67.3926 25.3575 62.75 37.406C57.8766 50.049 45.3141 58.8345 29.9384 64.3887L28.4076 64.9431L28.3624 65L26.4979 63.9587C14.485 57.241 5.25505 50.5106 1.43811 38.1185C-2.37381 25.7538 1.63134 13.0982 10.6254 1.20991L11.5413 0ZM31.8205 14.6222C26.6133 19.0023 22.5956 24.0886 20.1665 29.7693C16.1814 39.0776 17.1927 48.4596 22.1013 56.8236C14.0282 51.5919 8.38187 45.9555 5.67915 37.1974C2.39171 26.5232 5.50348 15.36 13.4134 4.41807C20.8264 6.6777 27.306 10.1156 31.8205 14.6222Z" fill="#84BA11"/>
<path d="M46.192 16.44C49.52 16.44 52.4853 17.1653 55.088 18.616C57.7333 20.0667 59.8027 22.1147 61.296 24.76C62.7893 27.4053 63.536 30.456 63.536 33.912C63.536 37.368 62.7893 40.44 61.296 43.128C59.8027 45.7733 57.7333 47.8213 55.088 49.272C52.4853 50.7227 49.52 51.448 46.192 51.448C43.8453 51.448 41.6907 51.0427 39.728 50.232C37.808 49.4213 36.1867 48.2053 34.864 46.584V51H27.248V3.512H35.248V20.984C36.6133 19.4907 38.2133 18.36 40.048 17.592C41.9253 16.824 43.9733 16.44 46.192 16.44ZM45.296 44.6C48.24 44.6 50.6507 43.6187 52.528 41.656C54.448 39.6933 55.408 37.112 55.408 33.912C55.408 30.712 54.448 28.1307 52.528 26.168C50.6507 24.2053 48.24 23.224 45.296 23.224C43.376 23.224 41.648 23.672 40.112 24.568C38.576 25.4213 37.36 26.6587 36.464 28.28C35.568 29.9013 35.12 31.7787 35.12 33.912C35.12 36.0453 35.568 37.9227 36.464 39.544C37.36 41.1653 38.576 42.424 40.112 43.32C41.648 44.1733 43.376 44.6 45.296 44.6ZM104.211 16.824V51H96.595V46.648C95.315 48.184 93.715 49.3787 91.795 50.232C89.875 51.0427 87.8057 51.448 85.587 51.448C81.0217 51.448 77.4163 50.1893 74.771 47.672C72.1683 45.112 70.867 41.336 70.867 36.344V16.824H78.867V35.256C78.867 38.328 79.5497 40.632 80.915 42.168C82.323 43.6613 84.307 44.408 86.867 44.408C89.7257 44.408 91.987 43.5333 93.651 41.784C95.3577 39.992 96.211 37.432 96.211 34.104V16.824H104.211ZM128.638 36.344L122.686 41.976V51H114.686V3.512H122.686V32.184L139.262 16.824H148.862L134.59 31.16L150.206 51H140.478L128.638 36.344ZM170.192 44.664C173.904 44.664 176.997 43.4267 179.472 40.952L183.696 45.88C182.202 47.7147 180.282 49.1013 177.936 50.04C175.589 50.9787 172.944 51.448 170 51.448C166.245 51.448 162.938 50.7013 160.08 49.208C157.221 47.7147 155.002 45.6453 153.424 43C151.888 40.312 151.12 37.2827 151.12 33.912C151.12 30.584 151.866 27.5973 153.36 24.952C154.896 22.264 156.986 20.1733 159.632 18.68C162.32 17.1867 165.349 16.44 168.72 16.44C171.92 16.44 174.821 17.144 177.424 18.552C180.069 19.9173 182.16 21.9013 183.696 24.504C185.232 27.064 186 30.072 186 33.528L159.824 38.648C160.634 40.6107 161.936 42.104 163.728 43.128C165.52 44.152 167.674 44.664 170.192 44.664ZM168.72 22.84C165.776 22.84 163.386 23.8 161.552 25.72C159.76 27.64 158.864 30.2213 158.864 33.464V33.528L178.192 29.816C177.637 27.7253 176.506 26.04 174.8 24.76C173.136 23.48 171.109 22.84 168.72 22.84ZM212.886 49.144C211.947 49.912 210.795 50.488 209.43 50.872C208.107 51.256 206.699 51.448 205.206 51.448C201.451 51.448 198.55 50.4667 196.502 48.504C194.454 46.5413 193.43 43.6827 193.43 39.928V9.272H201.43V17.08H210.582V23.48H201.43V39.736C201.43 41.4 201.835 42.68 202.646 43.576C203.499 44.4293 204.672 44.856 206.166 44.856C207.958 44.856 209.451 44.3867 210.646 43.448L212.886 49.144ZM234.629 44.664C238.341 44.664 241.434 43.4267 243.909 40.952L248.133 45.88C246.64 47.7147 244.72 49.1013 242.373 50.04C240.026 50.9787 237.381 51.448 234.437 51.448C230.682 51.448 227.376 50.7013 224.517 49.208C221.658 47.7147 219.44 45.6453 217.861 43C216.325 40.312 215.557 37.2827 215.557 33.912C215.557 30.584 216.304 27.5973 217.797 24.952C219.333 22.264 221.424 20.1733 224.069 18.68C226.757 17.1867 229.786 16.44 233.157 16.44C236.357 16.44 239.258 17.144 241.861 18.552C244.506 19.9173 246.597 21.9013 248.133 24.504C249.669 27.064 250.437 30.072 250.437 33.528L224.261 38.648C225.072 40.6107 226.373 42.104 228.165 43.128C229.957 44.152 232.112 44.664 234.629 44.664ZM233.157 22.84C230.213 22.84 227.824 23.8 225.989 25.72C224.197 27.64 223.301 30.2213 223.301 33.464V33.528L242.629 29.816C242.074 27.7253 240.944 26.04 239.237 24.76C237.573 23.48 235.546 22.84 233.157 22.84Z" fill="white"/>
</svg>
