<svg width="40" height="40" viewBox="0 0 40 40" fill="none" xmlns="http://www.w3.org/2000/svg">
<circle cx="20" cy="20" r="20" fill="white"/>
<path d="M18.1538 18.883C18.1538 19.888 18.9801 20.7021 20 20.7021C21.0199 20.7021 21.8462 19.888 21.8462 18.883C21.8462 17.878 21.0199 17.0638 20 17.0638C18.9801 17.0638 18.1538 17.878 18.1538 18.883Z" fill="#FD5890"/>
<path fill-rule="evenodd" clip-rule="evenodd" d="M13.2308 18.883C13.2308 21.4694 14.9325 23.9491 16.7541 25.8443C17.6525 26.7781 18.5534 27.5421 19.2295 28.0725C19.5436 28.3189 19.8081 28.5143 20 28.6523C20.192 28.5143 20.4571 28.3189 20.7705 28.0725C21.4466 27.5421 22.3475 26.7781 23.2459 25.8434C25.0675 23.9491 26.7692 21.4694 26.7692 18.883C26.7692 17.114 26.0562 15.4177 24.7877 14.1661C23.5167 12.9154 21.7953 12.2128 20 12.2128C18.2047 12.2128 16.4833 12.9162 15.2131 14.1661C13.9438 15.4177 13.2308 17.114 13.2308 18.883ZM20 21.9149C18.3007 21.9149 16.9231 20.5574 16.9231 18.883C16.9231 17.2086 18.3007 15.8511 20 15.8511C21.6993 15.8511 23.0769 17.2086 23.0769 18.883C23.0769 20.5574 21.6993 21.9149 20 21.9149Z" fill="#FD5890"/>
</svg>
