<svg width="381" height="71" viewBox="0 0 381 71" fill="none" xmlns="http://www.w3.org/2000/svg">
<rect width="381" height="71" rx="35.5" fill="#C7F04A"/>
<path d="M75.968 27.7V44.5H74.216V29.236H63.584V44.5H61.832V27.7H75.968ZM86.5807 43.108C87.3647 43.108 88.0847 42.972 88.7407 42.7C89.4127 42.412 89.9807 41.996 90.4447 41.452L91.4047 42.556C90.8447 43.228 90.1487 43.74 89.3167 44.092C88.4847 44.444 87.5647 44.62 86.5567 44.62C85.2607 44.62 84.1087 44.348 83.1007 43.804C82.0927 43.244 81.3087 42.476 80.7487 41.5C80.1887 40.524 79.9087 39.42 79.9087 38.188C79.9087 36.956 80.1727 35.852 80.7007 34.876C81.2447 33.9 81.9887 33.14 82.9327 32.596C83.8767 32.052 84.9487 31.78 86.1487 31.78C87.2687 31.78 88.2767 32.036 89.1727 32.548C90.0847 33.06 90.8047 33.772 91.3327 34.684C91.8767 35.596 92.1647 36.636 92.1967 37.804L81.8287 39.82C82.1487 40.844 82.7247 41.652 83.5567 42.244C84.4047 42.82 85.4127 43.108 86.5807 43.108ZM86.1487 33.244C85.2687 33.244 84.4767 33.452 83.7727 33.868C83.0847 34.268 82.5407 34.836 82.1407 35.572C81.7567 36.292 81.5647 37.124 81.5647 38.068C81.5647 38.308 81.5727 38.484 81.5887 38.596L90.4927 36.868C90.3007 35.812 89.8127 34.948 89.0287 34.276C88.2447 33.588 87.2847 33.244 86.1487 33.244ZM101.521 31.78C102.753 31.78 103.849 32.052 104.809 32.596C105.769 33.14 106.513 33.9 107.041 34.876C107.585 35.852 107.857 36.964 107.857 38.212C107.857 39.46 107.593 40.572 107.065 41.548C106.537 42.508 105.801 43.26 104.857 43.804C103.929 44.348 102.865 44.62 101.665 44.62C100.609 44.62 99.6651 44.412 98.8331 43.996C98.0171 43.564 97.3531 42.948 96.8411 42.148V49.156H95.1371V38.236C95.1371 36.972 95.4011 35.852 95.9291 34.876C96.4731 33.9 97.2251 33.14 98.1851 32.596C99.1611 32.052 100.273 31.78 101.521 31.78ZM101.473 43.132C102.369 43.132 103.177 42.924 103.897 42.508C104.617 42.092 105.177 41.508 105.577 40.756C105.977 40.004 106.177 39.156 106.177 38.212C106.177 37.268 105.977 36.42 105.577 35.668C105.177 34.916 104.617 34.332 103.897 33.916C103.177 33.484 102.369 33.268 101.473 33.268C100.577 33.268 99.7691 33.476 99.0491 33.892C98.3451 34.308 97.7931 34.892 97.3931 35.644C97.0091 36.38 96.8171 37.228 96.8171 38.188C96.8171 39.148 97.0091 40.004 97.3931 40.756C97.7931 41.508 98.3451 42.092 99.0491 42.508C99.7691 42.924 100.577 43.132 101.473 43.132ZM116.885 43.108C117.669 43.108 118.389 42.972 119.045 42.7C119.717 42.412 120.285 41.996 120.749 41.452L121.709 42.556C121.149 43.228 120.453 43.74 119.621 44.092C118.789 44.444 117.869 44.62 116.861 44.62C115.565 44.62 114.413 44.348 113.405 43.804C112.397 43.244 111.613 42.476 111.053 41.5C110.493 40.524 110.213 39.42 110.213 38.188C110.213 36.956 110.477 35.852 111.005 34.876C111.549 33.9 112.293 33.14 113.237 32.596C114.181 32.052 115.253 31.78 116.453 31.78C117.573 31.78 118.581 32.036 119.477 32.548C120.389 33.06 121.109 33.772 121.637 34.684C122.181 35.596 122.469 36.636 122.501 37.804L112.133 39.82C112.453 40.844 113.029 41.652 113.861 42.244C114.709 42.82 115.717 43.108 116.885 43.108ZM116.453 33.244C115.573 33.244 114.781 33.452 114.077 33.868C113.389 34.268 112.845 34.836 112.445 35.572C112.061 36.292 111.869 37.124 111.869 38.068C111.869 38.308 111.877 38.484 111.893 38.596L120.797 36.868C120.605 35.812 120.117 34.948 119.333 34.276C118.549 33.588 117.589 33.244 116.453 33.244ZM137.13 31.876V44.5H135.498V42.196C135.05 42.964 134.434 43.564 133.65 43.996C132.866 44.412 131.97 44.62 130.962 44.62C129.298 44.62 127.986 44.164 127.026 43.252C126.082 42.324 125.61 40.972 125.61 39.196V31.876H127.314V39.028C127.314 40.356 127.642 41.364 128.298 42.052C128.954 42.74 129.898 43.084 131.13 43.084C132.458 43.084 133.506 42.684 134.274 41.884C135.042 41.068 135.426 39.94 135.426 38.5V31.876H137.13ZM131.37 30.076C130.282 30.076 129.418 29.804 128.778 29.26C128.138 28.716 127.81 27.948 127.794 26.956H129.018C129.034 27.58 129.258 28.084 129.69 28.468C130.122 28.836 130.682 29.02 131.37 29.02C132.058 29.02 132.618 28.836 133.05 28.468C133.498 28.084 133.73 27.58 133.746 26.956H134.97C134.954 27.948 134.618 28.716 133.962 29.26C133.322 29.804 132.458 30.076 131.37 30.076ZM157.723 31.78C159.307 31.78 160.547 32.236 161.443 33.148C162.355 34.06 162.811 35.404 162.811 37.18V44.5H161.107V37.348C161.107 36.036 160.787 35.036 160.147 34.348C159.523 33.66 158.635 33.316 157.483 33.316C156.171 33.316 155.139 33.724 154.387 34.54C153.635 35.34 153.259 36.452 153.259 37.876V44.5H151.555V37.348C151.555 36.036 151.235 35.036 150.595 34.348C149.971 33.66 149.075 33.316 147.907 33.316C146.611 33.316 145.579 33.724 144.811 34.54C144.059 35.34 143.683 36.452 143.683 37.876V44.5H141.979V31.876H143.611V34.18C144.059 33.412 144.683 32.82 145.483 32.404C146.283 31.988 147.203 31.78 148.243 31.78C149.299 31.78 150.211 32.004 150.979 32.452C151.763 32.9 152.347 33.564 152.731 34.444C153.195 33.612 153.859 32.964 154.723 32.5C155.603 32.02 156.603 31.78 157.723 31.78ZM178.38 31.876V44.5H176.748V42.196C176.3 42.964 175.684 43.564 174.9 43.996C174.116 44.412 173.22 44.62 172.212 44.62C170.548 44.62 169.236 44.164 168.276 43.252C167.332 42.324 166.86 40.972 166.86 39.196V31.876H168.564V39.028C168.564 40.356 168.892 41.364 169.548 42.052C170.204 42.74 171.148 43.084 172.38 43.084C173.708 43.084 174.756 42.684 175.524 41.884C176.292 41.068 176.676 39.94 176.676 38.5V31.876H178.38ZM197.55 37.972C199.262 38.372 200.118 39.404 200.118 41.068C200.118 42.172 199.71 43.02 198.894 43.612C198.078 44.204 196.862 44.5 195.246 44.5H189.51V31.876H195.078C196.518 31.876 197.646 32.156 198.462 32.716C199.278 33.276 199.686 34.076 199.686 35.116C199.686 35.804 199.494 36.396 199.11 36.892C198.742 37.372 198.222 37.732 197.55 37.972ZM191.166 37.492H194.958C195.934 37.492 196.678 37.308 197.19 36.94C197.718 36.572 197.982 36.036 197.982 35.332C197.982 34.628 197.718 34.1 197.19 33.748C196.678 33.396 195.934 33.22 194.958 33.22H191.166V37.492ZM195.174 43.156C196.262 43.156 197.078 42.98 197.622 42.628C198.166 42.276 198.438 41.724 198.438 40.972C198.438 40.22 198.19 39.668 197.694 39.316C197.198 38.948 196.414 38.764 195.342 38.764H191.166V43.156H195.174ZM214.977 38.884H212.097V44.5H210.393V31.876H212.097V37.42H215.001L219.441 31.876H221.289L216.321 37.996L221.649 44.5H219.633L214.977 38.884ZM235.365 31.876V44.5H233.733V42.004C233.221 42.852 232.541 43.5 231.693 43.948C230.861 44.396 229.917 44.62 228.861 44.62C227.677 44.62 226.605 44.348 225.645 43.804C224.685 43.26 223.933 42.5 223.389 41.524C222.845 40.548 222.573 39.436 222.573 38.188C222.573 36.94 222.845 35.828 223.389 34.852C223.933 33.876 224.685 33.124 225.645 32.596C226.605 32.052 227.677 31.78 228.861 31.78C229.885 31.78 230.805 31.996 231.621 32.428C232.453 32.844 233.133 33.46 233.661 34.276V31.876H235.365ZM229.005 43.108C229.885 43.108 230.677 42.908 231.381 42.508C232.101 42.092 232.661 41.508 233.061 40.756C233.477 40.004 233.685 39.148 233.685 38.188C233.685 37.228 233.477 36.372 233.061 35.62C232.661 34.868 232.101 34.292 231.381 33.892C230.677 33.476 229.885 33.268 229.005 33.268C228.109 33.268 227.301 33.476 226.581 33.892C225.877 34.292 225.317 34.868 224.901 35.62C224.501 36.372 224.301 37.228 224.301 38.188C224.301 39.148 224.501 40.004 224.901 40.756C225.317 41.508 225.877 42.092 226.581 42.508C227.301 42.908 228.109 43.108 229.005 43.108ZM255.902 31.78C257.486 31.78 258.726 32.236 259.622 33.148C260.534 34.06 260.99 35.404 260.99 37.18V44.5H259.286V37.348C259.286 36.036 258.966 35.036 258.326 34.348C257.702 33.66 256.814 33.316 255.662 33.316C254.35 33.316 253.318 33.724 252.566 34.54C251.814 35.34 251.438 36.452 251.438 37.876V44.5H249.734V37.348C249.734 36.036 249.414 35.036 248.774 34.348C248.15 33.66 247.254 33.316 246.086 33.316C244.79 33.316 243.758 33.724 242.99 34.54C242.238 35.34 241.862 36.452 241.862 37.876V44.5H240.158V31.876H241.79V34.18C242.238 33.412 242.862 32.82 243.662 32.404C244.462 31.988 245.382 31.78 246.422 31.78C247.478 31.78 248.39 32.004 249.158 32.452C249.942 32.9 250.526 33.564 250.91 34.444C251.374 33.612 252.038 32.964 252.902 32.5C253.782 32.02 254.782 31.78 255.902 31.78ZM276.919 31.876V44.5H275.287V42.004C274.775 42.852 274.095 43.5 273.247 43.948C272.415 44.396 271.471 44.62 270.415 44.62C269.231 44.62 268.159 44.348 267.199 43.804C266.239 43.26 265.487 42.5 264.943 41.524C264.399 40.548 264.127 39.436 264.127 38.188C264.127 36.94 264.399 35.828 264.943 34.852C265.487 33.876 266.239 33.124 267.199 32.596C268.159 32.052 269.231 31.78 270.415 31.78C271.439 31.78 272.359 31.996 273.175 32.428C274.007 32.844 274.687 33.46 275.215 34.276V31.876H276.919ZM270.559 43.108C271.439 43.108 272.231 42.908 272.935 42.508C273.655 42.092 274.215 41.508 274.615 40.756C275.031 40.004 275.239 39.148 275.239 38.188C275.239 37.228 275.031 36.372 274.615 35.62C274.215 34.868 273.655 34.292 272.935 33.892C272.231 33.476 271.439 33.268 270.559 33.268C269.663 33.268 268.855 33.476 268.135 33.892C267.431 34.292 266.871 34.868 266.455 35.62C266.055 36.372 265.855 37.228 265.855 38.188C265.855 39.148 266.055 40.004 266.455 40.756C266.871 41.508 267.431 42.092 268.135 42.508C268.855 42.908 269.663 43.108 270.559 43.108ZM292.033 31.876V44.5H290.329V33.388H284.281L284.113 36.508C283.985 39.132 283.681 41.148 283.201 42.556C282.721 43.964 281.865 44.668 280.633 44.668C280.297 44.668 279.889 44.604 279.409 44.476L279.529 43.012C279.817 43.076 280.017 43.108 280.129 43.108C280.785 43.108 281.281 42.804 281.617 42.196C281.953 41.588 282.177 40.836 282.289 39.94C282.401 39.044 282.497 37.86 282.577 36.388L282.793 31.876H292.033ZM302.085 44.62C300.869 44.62 299.773 44.348 298.797 43.804C297.821 43.244 297.053 42.476 296.493 41.5C295.933 40.524 295.653 39.42 295.653 38.188C295.653 36.956 295.933 35.852 296.493 34.876C297.053 33.9 297.821 33.14 298.797 32.596C299.773 32.052 300.869 31.78 302.085 31.78C303.301 31.78 304.397 32.052 305.373 32.596C306.349 33.14 307.109 33.9 307.653 34.876C308.213 35.852 308.493 36.956 308.493 38.188C308.493 39.42 308.213 40.524 307.653 41.5C307.109 42.476 306.349 43.244 305.373 43.804C304.397 44.348 303.301 44.62 302.085 44.62ZM302.085 43.108C302.981 43.108 303.781 42.908 304.485 42.508C305.205 42.092 305.765 41.508 306.165 40.756C306.565 40.004 306.765 39.148 306.765 38.188C306.765 37.228 306.565 36.372 306.165 35.62C305.765 34.868 305.205 34.292 304.485 33.892C303.781 33.476 302.981 33.268 302.085 33.268C301.189 33.268 300.381 33.476 299.661 33.892C298.957 34.292 298.397 34.868 297.981 35.62C297.581 36.372 297.381 37.228 297.381 38.188C297.381 39.148 297.581 40.004 297.981 40.756C298.397 41.508 298.957 42.092 299.661 42.508C300.381 42.908 301.189 43.108 302.085 43.108ZM321.063 33.388H313.839V44.5H312.135V31.876H321.063V33.388Z" fill="black"/>
</svg>
