<svg width="24" height="24" viewBox="0 0 24 24" fill="none" xmlns="http://www.w3.org/2000/svg">
<path d="M21.7421 22.9859C21.7421 23.5459 22.2476 24 22.871 24C23.4944 24 23.9999 23.5459 23.9999 22.9859H21.7421ZM7.7163e-05 22.9859C7.7163e-05 23.5459 0.505588 24 1.12901 24C1.75243 24 2.25794 23.5459 2.25794 22.9859H7.7163e-05ZM8.60254 17.2868H15.3975V15.2586H8.60254V17.2868ZM15.3975 17.2868C17.3756 17.2868 18.1144 17.298 18.6864 17.4524L19.3412 15.5121C18.3691 15.2473 17.2113 15.2586 15.3975 15.2586V17.2868ZM23.9999 22.9859C23.9999 21.3566 24.0125 20.3155 23.7177 19.4434L21.5564 20.0315C21.7308 20.5442 21.7421 21.209 21.7421 22.9859H23.9999ZM18.6864 17.4524C20.0625 17.8265 21.14 18.7955 21.5564 20.0315L23.7177 19.4434C23.0817 17.5583 21.4398 16.0834 19.3412 15.5121L18.6864 17.4524ZM8.60254 15.2575C6.78872 15.2575 5.63094 15.2462 4.6588 15.511L5.31484 17.4524C5.88558 17.2969 6.6244 17.2856 8.60254 17.2856V15.2575ZM2.25794 22.9859C2.25794 21.209 2.26923 20.5442 2.44233 20.0315L0.28231 19.4434C-0.0124666 20.3155 7.7163e-05 21.3566 7.7163e-05 22.9859H2.25794ZM4.6588 15.5121C2.5615 16.0834 0.91953 17.5583 0.28231 19.4434L2.44233 20.0315C2.85878 18.7955 3.93754 17.8265 5.31484 17.4524L4.6588 15.5121ZM16.9867 6.50704C16.9867 8.98028 14.754 10.9859 12.0006 10.9859V13.0141C16.0021 13.0141 19.2446 10.1003 19.2446 6.50704H16.9867ZM12.0006 10.9859C9.24603 10.9859 7.01451 8.98028 7.01451 6.50704H4.75665C4.75665 10.1014 7.99919 13.0141 12.0006 13.0141V10.9859ZM7.01451 6.50704C7.01451 4.0338 9.24729 2.02817 12.0006 2.02817V0C7.99919 0 4.75665 2.91381 4.75665 6.50704H7.01451ZM12.0006 2.02817C14.754 2.02817 16.9867 4.0338 16.9867 6.50704H19.2446C19.2446 2.91268 16.0008 0 12.0006 0V2.02817Z" fill="white"/>
</svg>
