<svg width="24" height="24" viewBox="0 0 24 24" fill="none" xmlns="http://www.w3.org/2000/svg">
<path d="M17.9243 9.79084C17.9243 9.25837 17.4479 8.82467 16.8603 8.82467C16.2727 8.82467 15.7962 9.25837 15.7962 9.79084H17.9243ZM8.20377 9.79406C8.20377 9.26052 7.72731 8.82789 7.13973 8.82789C6.55215 8.82789 6.0757 9.26052 6.0757 9.79406H8.20377ZM19.0226 2.25149L20.9178 4.54668L22.6202 3.38835L20.7251 1.09315L19.0226 2.25149ZM3.08222 4.54668L4.97738 2.25149L3.27493 1.09208L1.37976 3.38727L3.08222 4.54668ZM5.68201 1.93265H18.318V0.000307083H5.68201V1.93265ZM4.97738 2.25149C5.09088 2.11407 5.15117 2.04107 5.19964 1.98955C5.24102 1.94446 5.24339 1.94768 5.22565 1.96056L3.93936 0.421125C3.6568 0.614361 3.45227 0.878447 3.27493 1.09208L4.97738 2.25149ZM5.68201 0.000307083C5.38644 0.000307083 5.03176 -0.00935745 4.69127 0.0797443L5.27531 1.93694C5.25403 1.94339 5.25285 1.93909 5.31669 1.93694C5.39117 1.93265 5.49284 1.93265 5.68201 1.93265V0.000307083ZM5.22565 1.96056C5.24142 1.94983 5.25797 1.94124 5.27531 1.93694L4.69127 0.0797443C4.41935 0.149523 4.16399 0.265465 3.93936 0.421125L5.22565 1.96056ZM1.37976 3.38727C1.20479 3.59876 1.02745 3.81132 0.903314 3.99489C0.78627 4.16665 0.599473 4.4726 0.607749 4.85907L2.73582 4.81828C2.73818 4.92241 2.71217 4.99756 2.70035 5.02654C2.68971 5.05124 2.68734 5.05016 2.71453 5.00937C2.74054 4.97072 2.78192 4.91597 2.84577 4.83545C2.90961 4.75494 2.98645 4.66262 3.08222 4.54668L1.37976 3.38727ZM3.00774 4.41356C2.84931 4.41356 2.72163 4.41356 2.61286 4.41141C2.50291 4.41034 2.43079 4.40712 2.37996 4.40282C2.32794 4.39853 2.32794 4.39531 2.35631 4.40282C2.38941 4.41141 2.46981 4.43718 2.56084 4.50159L1.24853 6.02278C1.5843 6.2611 1.96616 6.30833 2.18725 6.32658C2.4237 6.34698 2.7169 6.3459 3.00774 6.3459V4.41356ZM0.607749 4.85907C0.618389 5.31532 0.853659 5.74151 1.24853 6.02278L2.56084 4.50159C2.66843 4.57781 2.73227 4.69375 2.73582 4.81828L0.607749 4.85907ZM20.919 4.54775C21.0135 4.66262 21.0904 4.75494 21.1542 4.83545C21.2181 4.91597 21.2595 4.97072 21.2855 5.00937C21.3127 5.05016 21.3091 5.05231 21.2997 5.02654C21.2878 4.99756 21.2618 4.92241 21.2642 4.81828L23.3923 4.85907C23.4005 4.4726 23.2137 4.16665 23.0967 3.99489C22.9725 3.81132 22.7952 3.6009 22.6202 3.38835L20.919 4.54775ZM20.9923 6.3459C21.2831 6.3459 21.5763 6.3459 21.8128 6.32658C22.0338 6.30833 22.4157 6.26217 22.7515 6.02278L21.4392 4.50159C21.5302 4.43718 21.6106 4.41141 21.6437 4.40282C21.6721 4.39531 21.6721 4.39853 21.62 4.40282C21.5692 4.40712 21.4971 4.41034 21.3871 4.41141C21.2784 4.41356 21.1507 4.41356 20.9923 4.41356V6.3459ZM21.2642 4.81828C21.2677 4.69375 21.3316 4.57781 21.4392 4.50159L22.7515 6.02278C23.1463 5.74151 23.3816 5.31425 23.3923 4.85907L21.2642 4.81828ZM20.7251 1.09315C20.5477 0.878447 20.3432 0.615435 20.0606 0.421125L18.7743 1.96056C18.7566 1.94768 18.759 1.94446 18.8004 1.98955C18.8476 2.04107 18.9091 2.11407 19.0226 2.25149L20.7251 1.09315ZM18.318 1.93265C18.5072 1.93265 18.6088 1.93265 18.6833 1.93587C18.7472 1.93909 18.746 1.94338 18.7247 1.93802L19.3087 0.0797443C18.9682 -0.00935745 18.6136 0.000307083 18.318 0.000307083V1.93265ZM20.0606 0.421125C19.836 0.265465 19.5806 0.149523 19.3087 0.0797443L18.7247 1.93802C18.7428 1.94303 18.7594 1.94983 18.7743 1.96056L20.0606 0.421125ZM21.8719 6.55631V19.503H23.9999V6.55631H21.8719ZM19.0474 22.0666H4.95255L4.95373 23.9989H19.0463L19.0474 22.0666ZM2.12813 19.5019V6.55631H6.74247e-05V19.5019H2.12813ZM2.69325 5.01796L4.97738 2.25149L3.27493 1.09208L0.990801 3.85855L2.69325 5.01796ZM19.0226 2.25149L21.3067 5.01796L23.0092 3.85748L20.7251 1.09315L19.0226 2.25149ZM2.12813 6.55631C2.12813 6.08396 2.13286 5.97339 2.15296 5.87677L0.0650916 5.50641C-0.00466168 5.82846 6.74247e-05 6.15589 6.74247e-05 6.55631H2.12813ZM0.990801 3.85855C0.725975 4.17846 0.506074 4.43825 0.348834 4.73347L2.26409 5.57512C2.31138 5.48601 2.37996 5.39691 2.69325 5.01796L0.990801 3.85855ZM2.15296 5.87677C2.17661 5.77157 2.21365 5.67102 2.26409 5.57512L0.348834 4.73347C0.217997 4.97967 0.123416 5.23731 0.0650916 5.50641L2.15296 5.87677ZM4.95255 22.0666C4.25502 22.0666 3.79512 22.0666 3.44399 22.0397C3.10468 22.0151 2.95926 21.971 2.87532 21.9324L1.90823 23.6522C2.34331 23.8529 2.79848 23.9302 3.2702 23.9646C3.72773 23.9989 4.2893 23.9979 4.95255 23.9979V22.0666ZM6.74247e-05 19.5019C6.74247e-05 20.1042 6.73764e-05 20.6141 0.0367174 21.0306C0.075732 21.4579 0.159672 21.8733 0.380755 22.2673L2.2771 21.3892C2.23336 21.3119 2.18488 21.1809 2.15769 20.8739C2.12932 20.5518 2.12813 20.1364 2.12813 19.5019H6.74247e-05ZM2.87414 21.9313C2.61877 21.8132 2.40833 21.6232 2.2771 21.3892L0.380755 22.2673C0.715334 22.8653 1.2509 23.3494 1.90823 23.6543L2.87414 21.9313ZM21.8719 19.503C21.8719 20.1364 21.8719 20.554 21.8423 20.8728C21.8151 21.1809 21.7666 21.313 21.7241 21.3892L23.6192 22.2663C23.8403 21.8723 23.9243 21.4579 23.9633 21.0306C24.0011 20.6141 23.9999 20.1053 23.9999 19.503H21.8719ZM19.0474 24C19.7095 24 20.2723 24 20.7298 23.9656C21.2015 23.9313 21.6567 23.854 22.0918 23.6533L21.1259 21.9302C21.0407 21.97 20.8965 22.0151 20.5572 22.0397C20.2049 22.0655 19.7462 22.0666 19.0474 22.0666V24ZM21.7241 21.3892C21.594 21.6232 21.3824 21.8111 21.1259 21.9302L22.0918 23.6533C22.7491 23.3494 23.2847 22.8642 23.6192 22.2663L21.7241 21.3892ZM23.9999 6.55631C23.9999 6.15589 24.0047 5.82846 23.9349 5.50641L21.847 5.8757C21.8671 5.97232 21.8719 6.08289 21.8719 6.55631H23.9999ZM21.3067 5.01796C21.62 5.39584 21.6886 5.48601 21.7359 5.57512L23.6512 4.73347C23.4939 4.43718 23.2728 4.17739 23.0092 3.85748L21.3067 5.01796ZM23.9349 5.50641C23.8766 5.23731 23.782 4.97967 23.6512 4.73347L21.7359 5.57512C21.7864 5.67173 21.8234 5.77121 21.847 5.8757L23.9349 5.50641ZM15.7962 9.79299C15.7962 10.7066 15.3966 11.5836 14.6849 12.2299L16.1887 13.5965C17.3001 12.5874 17.9243 11.2197 17.9243 9.79299H15.7962ZM14.6849 12.2299C13.972 12.8772 13.0061 13.2401 12 13.2401V15.1735C13.5712 15.1735 15.0786 14.6056 16.1887 13.5965L14.6849 12.2299ZM12 13.2401C10.9927 13.2401 10.028 12.8783 9.31627 12.232L7.81007 13.5954C8.9214 14.6045 10.4276 15.1713 11.9988 15.1713L12 13.2401ZM9.31627 12.232C8.60337 11.5847 8.20377 10.7076 8.20377 9.79406H6.0757C6.0757 11.2208 6.69993 12.5884 7.81125 13.5976L9.31627 12.232ZM20.9923 4.41356H3.00774V6.3459H20.9923V4.41356Z" fill="white"/>
</svg>
