<svg width="24" height="24" viewBox="0 0 24 24" fill="none" xmlns="http://www.w3.org/2000/svg">
<path d="M21.9521 23.649C22.4202 24.117 23.181 24.117 23.649 23.649C24.117 23.1798 24.117 22.4202 23.649 21.9511L21.9521 23.649ZM18.4289 16.7312C17.9608 16.2632 17.2 16.2632 16.732 16.7312C16.264 17.1992 16.264 17.96 16.732 18.4279L18.4289 16.7312ZM23.649 21.9511L18.4289 16.7312L16.732 18.4279L21.9521 23.6478L23.649 21.9511ZM19.2005 10.7997C19.2005 15.4388 15.4396 19.1995 10.8003 19.1995V21.5995C16.7644 21.5995 21.6005 16.7636 21.6005 10.7997H19.2005ZM10.8003 19.1995C6.16095 19.1995 2.40006 15.4388 2.40006 10.7997H0C0 16.7636 4.83612 21.5995 10.8003 21.5995V19.1995ZM2.40006 10.7997C2.40006 6.16065 6.16095 2.39994 10.8003 2.39994V0C4.83612 0 0 4.83588 0 10.7997H2.40006ZM10.8003 2.39994C15.4396 2.39994 19.2005 6.16065 19.2005 10.7997H21.6005C21.6005 4.83588 16.7644 0 10.8003 0V2.39994Z" fill="#6C6C6C"/>
</svg>
