<svg width="252" height="46" viewBox="0 0 252 46" fill="none" xmlns="http://www.w3.org/2000/svg">
<rect width="252" height="46" rx="10" fill="white"/>
<path d="M236.952 34.649C237.42 35.117 238.181 35.117 238.649 34.649C239.117 34.1798 239.117 33.4202 238.649 32.9511L236.952 34.649ZM233.429 27.7312C232.961 27.2632 232.2 27.2632 231.732 27.7312C231.264 28.1992 231.264 28.96 231.732 29.4279L233.429 27.7312ZM238.649 32.9511L233.429 27.7312L231.732 29.4279L236.952 34.6478L238.649 32.9511ZM234.2 21.7997C234.2 26.4388 230.44 30.1995 225.8 30.1995V32.5995C231.764 32.5995 236.601 27.7636 236.601 21.7997H234.2ZM225.8 30.1995C221.161 30.1995 217.4 26.4388 217.4 21.7997H215C215 27.7636 219.836 32.5995 225.8 32.5995V30.1995ZM217.4 21.7997C217.4 17.1606 221.161 13.3999 225.8 13.3999V11C219.836 11 215 15.8359 215 21.7997H217.4ZM225.8 13.3999C230.44 13.3999 234.2 17.1606 234.2 21.7997H236.601C236.601 15.8359 231.764 11 225.8 11V13.3999Z" fill="#6C6C6C"/>
</svg>
