<svg width="30" height="30" viewBox="0 0 30 30" fill="none" xmlns="http://www.w3.org/2000/svg">
<path d="M30 15C30 23.2843 23.2843 30 15 30C6.71573 30 0 23.2843 0 15C0 6.71573 6.71573 0 15 0C23.2843 0 30 6.71573 30 15Z" fill="#6A6F6C"/>
<path fill-rule="evenodd" clip-rule="evenodd" d="M7.0328 14.4563C11.0639 12.34 13.7513 10.9444 15.095 10.2696C18.9355 8.34545 19.7337 8.0113 20.2534 8.00016C20.3678 7.99737 20.6231 8.03079 20.7894 8.19369C20.928 8.33013 20.9673 8.51392 20.9857 8.6448C21.0042 8.77428 21.0273 9.06945 21.0088 9.30058C20.8009 11.9362 19.9 18.3311 19.4426 21.2828C19.2486 22.5317 18.8674 22.9508 18.4978 22.9926C17.695 23.0817 17.0852 22.3521 16.3078 21.7381C15.0904 20.7774 14.402 20.1787 13.2215 19.2389C11.8563 18.1557 12.7422 17.5598 13.5195 16.5851C13.7228 16.3304 17.2619 12.4514 17.3289 12.0991C17.3381 12.056 17.3462 11.8903 17.2653 11.8053C17.1845 11.7176 17.0644 11.7483 16.9789 11.7719C16.8565 11.8053 14.9121 13.3541 11.1459 16.4181C10.5946 16.8748 10.0952 17.0975 9.64782 17.0864C9.15346 17.0725 8.20401 16.7494 7.49828 16.4738C6.632 16.1326 5.94359 15.9544 6.00365 15.378C6.03445 15.0773 6.37827 14.77 7.0328 14.4563Z" fill="white"/>
</svg>
