<svg width="31" height="30" viewBox="0 0 31 30" fill="none" xmlns="http://www.w3.org/2000/svg">
<path d="M30 15C30 23.2843 23.2843 30 15 30C6.71573 30 0 23.2843 0 15C0 6.71573 6.71573 0 15 0C23.2843 0 30 6.71573 30 15Z" fill="#6A6F6C"/>
<path d="M15.461 0C7.16742 0 0.445312 6.7151 0.445312 15C0.445312 23.2849 7.16742 30 15.461 30C23.7545 30 30.4766 23.2849 30.4766 15C30.4766 6.7151 23.7545 0 15.461 0ZM21.2355 16.9224C21.2355 16.9224 22.5643 18.2327 22.8903 18.8412C22.8993 18.8543 22.905 18.8645 22.9075 18.8718C23.0399 19.0947 23.0726 19.2702 23.0055 19.3984C22.8965 19.6139 22.5214 19.7204 22.3927 19.729H20.0465C19.8847 19.729 19.544 19.6873 19.1309 19.4033C18.8144 19.1831 18.5039 18.8217 18.2018 18.4701C18.1998 18.4677 18.1977 18.4653 18.1956 18.4629C17.7397 17.9339 17.3462 17.4784 16.949 17.4784C16.8976 17.4784 16.8477 17.4861 16.7995 17.5016C16.4992 17.5996 16.1143 18.0269 16.1143 19.1669C16.1143 19.5233 15.8324 19.7278 15.635 19.7278H14.56C14.1935 19.7278 12.2874 19.6004 10.5983 17.82C8.53047 15.6404 6.66853 11.269 6.65382 11.2286C6.53615 10.9457 6.77885 10.7939 7.04239 10.7939H9.41302C9.72804 10.7939 9.83223 10.9861 9.90333 11.1563C9.98913 11.3547 10.298 12.1433 10.8067 13.031C11.6304 14.4784 12.1354 15.0661 12.5412 15.0661C12.618 15.0645 12.6903 15.0457 12.7581 15.0098C13.2864 14.7159 13.1872 12.8327 13.1651 12.442C13.1651 12.3686 13.1626 11.5996 12.893 11.231C12.6993 10.9641 12.3683 10.8624 12.1685 10.8245C12.2494 10.7143 12.3561 10.6224 12.4799 10.5612C12.8427 10.38 13.4973 10.3531 14.1457 10.3531H14.5073C15.2109 10.3629 15.3923 10.4082 15.6473 10.4718C16.1621 10.5943 16.1743 10.9286 16.129 12.0673C16.1143 12.3906 16.1008 12.7567 16.1008 13.1878C16.0992 13.2808 16.0975 13.3808 16.0959 13.4878L16.0959 13.489C16.0799 14.0679 16.0619 14.7247 16.471 14.9951C16.5257 15.0294 16.5854 15.0465 16.6499 15.0465C16.7921 15.0465 17.2212 15.0465 18.3807 13.058C18.7387 12.4171 19.0492 11.7535 19.3123 11.0669C19.3356 11.0265 19.4042 10.9016 19.4851 10.8527C19.5473 10.8224 19.6118 10.8073 19.6788 10.8073H22.465C22.769 10.8073 22.9761 10.8527 23.0166 10.9702C23.084 11.1563 23.0043 11.7233 21.732 13.4437L21.1632 14.1918C20.011 15.7016 20.0098 15.7775 21.2355 16.9224Z" fill="#6A706C"/>
<path d="M21.2355 16.9224C21.2355 16.9224 22.5643 18.2327 22.8903 18.8412C22.8993 18.8543 22.905 18.8645 22.9075 18.8718C23.0399 19.0947 23.0726 19.2702 23.0055 19.3984C22.8965 19.6139 22.5214 19.7204 22.3927 19.729H20.0465C19.8847 19.729 19.544 19.6873 19.1309 19.4033C18.8144 19.1831 18.5039 18.8217 18.2018 18.4701L18.1956 18.4629C17.7397 17.9339 17.3462 17.4784 16.949 17.4784C16.8976 17.4784 16.8477 17.4861 16.7995 17.5016C16.4992 17.5996 16.1143 18.0269 16.1143 19.1669C16.1143 19.5233 15.8324 19.7278 15.635 19.7278H14.56C14.1935 19.7278 12.2874 19.6004 10.5983 17.82C8.53047 15.6404 6.66853 11.269 6.65382 11.2286C6.53615 10.9457 6.77885 10.7939 7.04239 10.7939H9.41302C9.72804 10.7939 9.83223 10.9861 9.90333 11.1563C9.98913 11.3547 10.298 12.1433 10.8067 13.031C11.6304 14.4784 12.1354 15.0661 12.5412 15.0661C12.618 15.0645 12.6903 15.0457 12.7581 15.0098C13.2864 14.7159 13.1872 12.8327 13.1651 12.442C13.1651 12.3686 13.1626 11.5996 12.893 11.231C12.6993 10.9641 12.3683 10.8624 12.1685 10.8245C12.2494 10.7143 12.3561 10.6224 12.4799 10.5612C12.8427 10.38 13.4973 10.3531 14.1457 10.3531H14.5073C15.2109 10.3629 15.3923 10.4082 15.6473 10.4718C16.1621 10.5943 16.1743 10.9286 16.129 12.0673C16.1143 12.3906 16.1008 12.7567 16.1008 13.1878C16.0992 13.2808 16.0975 13.3808 16.0959 13.4878L16.0959 13.489C16.0799 14.0679 16.0619 14.7247 16.471 14.9951C16.5257 15.0294 16.5854 15.0465 16.6499 15.0465C16.7921 15.0465 17.2212 15.0465 18.3807 13.058C18.7387 12.4171 19.0492 11.7535 19.3123 11.0669C19.3356 11.0265 19.4042 10.9016 19.4851 10.8527C19.5473 10.8224 19.6118 10.8073 19.6788 10.8073H22.465C22.769 10.8073 22.9761 10.8527 23.0166 10.9702C23.084 11.1563 23.0043 11.7233 21.732 13.4437L21.1632 14.1918C20.011 15.7016 20.0098 15.7775 21.2355 16.9224Z" fill="white"/>
</svg>
