<svg width="31" height="30" viewBox="0 0 31 30" fill="none" xmlns="http://www.w3.org/2000/svg">
<path d="M30 15C30 23.2843 23.2843 30 15 30C6.71573 30 0 23.2843 0 15C0 6.71573 6.71573 0 15 0C23.2843 0 30 6.71573 30 15Z" fill="#6A6F6C"/>
<path fill-rule="evenodd" clip-rule="evenodd" d="M15.5161 21.0938C7.82974 21.0938 7.69548 20.401 7.69548 15C7.69548 9.59896 7.82974 8.90625 15.5161 8.90625C23.2025 8.90625 23.3368 9.59896 23.3368 15C23.3368 20.401 23.2025 21.0938 15.5161 21.0938ZM14.5099 13.1016L18.0239 14.7396C18.3303 14.8828 18.3303 15.1172 18.0213 15.2604L14.5099 16.8984C14.2036 17.0404 13.952 16.8802 13.952 16.5417V13.4583C13.952 13.1185 14.2036 12.9583 14.5099 13.1016Z" fill="white"/>
</svg>
