<svg width="300" height="71" viewBox="0 0 300 71" fill="none" xmlns="http://www.w3.org/2000/svg">
<rect width="300" height="71" rx="35.5" fill="#C7F04A"/>
<path d="M43.556 34.948C45.1133 35.268 46.2973 35.8973 47.108 36.836C47.9187 37.7533 48.324 38.9587 48.324 40.452C48.324 42.3933 47.6307 43.8867 46.244 44.932C44.8787 45.9773 42.8627 46.5 40.196 46.5H30.276V24.1H39.588C41.9773 24.1 43.844 24.5907 45.188 25.572C46.532 26.5533 47.204 27.972 47.204 29.828C47.204 31.0867 46.884 32.1533 46.244 33.028C45.604 33.8813 44.708 34.5213 43.556 34.948ZM32.612 34.244H39.46C41.188 34.244 42.5107 33.892 43.428 33.188C44.3667 32.484 44.836 31.46 44.836 30.116C44.836 28.772 44.3667 27.748 43.428 27.044C42.5107 26.34 41.188 25.988 39.46 25.988H32.612V34.244ZM40.196 44.612C44.0573 44.612 45.988 43.172 45.988 40.292C45.988 37.476 44.0573 36.068 40.196 36.068H32.612V44.612H40.196ZM70.0438 36.228H64.9238V46.5H62.6198V24.1H64.9238V34.148H70.0438L77.6278 24.1H80.1878L71.8678 34.98L80.6678 46.5H77.9478L70.0438 36.228ZM93.6438 23.908C96.5451 23.908 98.8278 24.7613 100.492 26.468C102.177 28.1533 103.02 30.596 103.02 33.796V46.5H100.684V39.908H86.6038V46.5H84.2998V33.796C84.2998 30.596 85.1318 28.1533 86.7958 26.468C88.4811 24.7613 90.7638 23.908 93.6438 23.908ZM100.684 37.86V33.572C100.684 31.076 100.065 29.1987 98.8278 27.94C97.5904 26.66 95.8624 26.02 93.6438 26.02C91.4251 26.02 89.6971 26.66 88.4598 27.94C87.2224 29.1987 86.6038 31.076 86.6038 33.572V37.86H100.684ZM124.428 28.228C122.231 26.948 119.799 26.212 117.132 26.02V46.5H114.764V26.02C112.14 26.1907 109.698 26.9267 107.436 28.228L106.572 26.372C109.346 24.7293 112.46 23.908 115.916 23.908C119.436 23.908 122.562 24.7293 125.292 26.372L124.428 28.228ZM138.206 23.908C141.108 23.908 143.39 24.7613 145.054 26.468C146.74 28.1533 147.582 30.596 147.582 33.796V46.5H145.246V39.908H131.166V46.5H128.862V33.796C128.862 30.596 129.694 28.1533 131.358 26.468C133.044 24.7613 135.326 23.908 138.206 23.908ZM145.246 37.86V33.572C145.246 31.076 144.628 29.1987 143.39 27.94C142.153 26.66 140.425 26.02 138.206 26.02C135.988 26.02 134.26 26.66 133.022 27.94C131.785 29.1987 131.166 31.076 131.166 33.572V37.86H145.246ZM163.68 23.908C166.474 23.908 168.682 24.74 170.304 26.404C171.925 28.068 172.736 30.4467 172.736 33.54V46.5H170.368V33.316C170.368 30.9053 169.781 29.092 168.608 27.876C167.434 26.6387 165.792 26.02 163.68 26.02C161.546 26.02 159.882 26.6387 158.688 27.876C157.514 29.092 156.928 30.9053 156.928 33.316V46.5H151.872V44.452H154.56V33.54C154.56 30.4467 155.381 28.068 157.024 26.404C158.666 24.74 160.885 23.908 163.68 23.908ZM189.506 46.692C187.288 46.692 185.272 46.2013 183.458 45.22C181.666 44.2173 180.258 42.852 179.234 41.124C178.232 39.396 177.73 37.4547 177.73 35.3C177.73 33.1453 178.232 31.204 179.234 29.476C180.258 27.748 181.666 26.3933 183.458 25.412C185.272 24.4093 187.288 23.908 189.506 23.908C191.725 23.908 193.72 24.3987 195.49 25.38C197.282 26.3613 198.69 27.7267 199.714 29.476C200.738 31.204 201.25 33.1453 201.25 35.3C201.25 37.4547 200.738 39.4067 199.714 41.156C198.69 42.884 197.282 44.2387 195.49 45.22C193.72 46.2013 191.725 46.692 189.506 46.692ZM189.506 44.58C191.277 44.58 192.877 44.1853 194.306 43.396C195.736 42.5853 196.856 41.476 197.666 40.068C198.477 38.6387 198.882 37.0493 198.882 35.3C198.882 33.5507 198.477 31.972 197.666 30.564C196.856 29.1347 195.736 28.0253 194.306 27.236C192.877 26.4253 191.277 26.02 189.506 26.02C187.736 26.02 186.125 26.4253 184.674 27.236C183.245 28.0253 182.114 29.1347 181.282 30.564C180.472 31.972 180.066 33.5507 180.066 35.3C180.066 37.0493 180.472 38.6387 181.282 40.068C182.114 41.476 183.245 42.5853 184.674 43.396C186.125 44.1853 187.736 44.58 189.506 44.58ZM221.141 26.148H209.205L209.237 46.5H206.901V24.1H221.141V26.148Z" fill="black"/>
<path d="M259.37 29.5397H257.685V39.3034L259.218 40.8363L259.265 40.8835L259.218 40.9306L258.688 41.4611H259.37V29.5397ZM258.594 42.3675C259.006 42.3352 259.335 42.0064 259.367 41.5944H258.594V42.3675ZM258.461 41.6879L257.933 42.2159L257.886 42.2631L257.839 42.2159L256.308 40.6853H246.54V42.3701H258.461V41.6879ZM258.366 41.5944H257.619H257.552V41.5277V40.6853H256.497L257.886 42.0745L258.366 41.5944ZM259.077 40.8835L257.685 39.492V40.552H258.528H258.594V40.6187V41.366L259.077 40.8835ZM257.685 40.6853V41.4611H258.461V40.6853H257.685ZM257.552 40.552V39.3586L247.117 28.9231L245.925 30.1141L256.363 40.552H257.552ZM245.832 30.0189L247.02 28.8314C246.689 28.5479 246.191 28.563 245.878 28.8767L245.878 28.8768C245.564 29.1906 245.549 29.6881 245.832 30.0189ZM246.406 40.6879C245.972 40.7219 245.631 41.0843 245.631 41.5277C245.631 41.9704 245.972 42.3335 246.406 42.3675V40.6879ZM257.688 29.4064H259.368C259.334 28.9718 258.97 28.6307 258.528 28.6307C258.085 28.6307 257.722 28.9718 257.688 29.4064ZM252.434 54.7485C241.856 54.7126 233.287 46.1441 233.252 35.5663H231.567C231.603 47.0751 240.925 56.3974 252.434 56.4332V54.7485ZM271.748 35.5663C271.713 46.1441 263.145 54.7126 252.567 54.7485V56.4332C264.075 56.3974 273.397 47.0751 273.433 35.5663H271.748ZM271.748 35.4329H273.433C273.397 23.9249 264.075 14.6026 252.567 14.5668V16.2515C263.145 16.2874 271.713 24.8551 271.748 35.4329ZM252.434 16.2515V14.5668C240.925 14.6026 231.603 23.9241 231.567 35.4329H233.252C233.287 24.8551 241.856 16.2874 252.434 16.2515Z" fill="#1E1E1E" stroke="#1E1E1E" stroke-width="0.133333"/>
</svg>
